<svg version="1.1" viewBox="-40.0000 -40.0000 314.1492 200.0000" xmlns="http://www.w3.org/2000/svg" transform="scale(1,-1)" >\  <g>
  <path d="M 0.0000 0.0000 L 2.5132 0.0161 L 5.0260 0.0641 L 7.5380 0.1435 L 10.0489 0.2537 L 12.5582 0.3936 L 15.0658 0.5622 L 17.5714 0.7582 L 20.0749 0.9799 L 22.5761 1.2258 L 25.0750 1.4940 L 27.5716 1.7827 L 30.0661 2.0899 L 32.5584 2.4137 L 35.0488 2.7521 L 37.5374 3.1031 L 40.0245 3.4649 L 42.5103 3.8356 L 44.9950 4.2136 L 47.4788 4.5974 L 49.9619 4.9856 L 52.4445 5.3770 L 54.9267 5.7708 L 57.4087 6.1662 L 59.8905 6.5627 L 62.3722 6.9601 L 64.8537 7.3583 L 67.3350 7.7577 L 69.8161 8.1587 L 72.2968 8.5619 L 74.7770 8.9685 L 77.2564 9.3795 L 79.7349 9.7962 L 82.2122 10.2202 L 84.6879 10.6531 L 87.1617 11.0967 L 89.6332 11.5529 L 92.1020 12.0235 L 94.5677 12.5105 L 97.0296 13.0158 L 99.4873 13.5412 L 101.9403 14.0886 L 104.3878 14.6597 L 106.8293 15.2559 L 109.2642 15.8787 L 111.6918 16.5293 L 114.1115 17.2086 L 116.5227 17.9175 L 118.9249 18.6565 L 121.3174 19.4260 L 123.6999 20.2260 L 126.0720 21.0565 L 128.4334 21.9170 L 130.7838 22.8071 L 133.1231 23.7258 L 135.4513 24.6722 L 137.7686 25.6451 L 140.0752 26.6433 L 142.3713 27.6651 L 144.6575 28.7091 L 146.9343 29.7734 L 149.2023 30.8564 L 151.4621 31.9562 L 153.7146 33.0710 L 155.9606 34.1989 L 158.2008 35.3382 L 160.4360 36.4872 L 162.6671 37.6442 L 164.8948 38.8078 L 167.1198 39.9766 L 169.3427 41.1493 L 171.5641 42.3249 L 173.7843 43.5026 L 176.0038 44.6818 L 178.2228 45.8619 L 180.4413 47.0428 L 182.6595 48.2245 L 184.8771 49.4072 L 187.0939 50.5914 L 189.3096 51.7776 L 191.5238 52.9667 L 193.7358 54.1597 L 195.9451 55.3579 L 198.1509 56.5626 L 200.3522 57.7752 L 202.5484 58.9973 L 204.7383 60.2305 L 206.9209 61.4766 L 209.0953 62.7371 L 211.2601 64.0137 L 213.4145 65.3080 L 215.5572 66.6215 L 217.6871 67.9556 L 219.8032 69.3116 L 221.9044 70.6906 L 223.9897 72.0935 L 226.0581 73.5210 L 228.1090 74.9738 L 230.1415 76.4521 L 232.1551 77.9561 L 234.1492 79.4857 " stroke="black" fill="transparent" />
  <path d="M 2.5132058 0.016063625 l 12.351962 -38.045094" stroke="black" fill="transparent" />
  <path d="M 5.026005 0.0640537 l 15.726289 -36.77885" stroke="black" fill="transparent" />
  <path d="M 7.538007 0.14348982 l 18.877865 -35.265087" stroke="black" fill="transparent" />
  <path d="M 10.048851 0.2536585 l 21.752071 -33.568542" stroke="black" fill="transparent" />
  <path d="M 12.55821 0.39362323 l 24.310534 -31.764732" stroke="black" fill="transparent" />
  <path d="M 15.065808 0.56223816 l 26.531668 -29.934437" stroke="black" fill="transparent" />
  <path d="M 17.571423 0.7581648 l 28.409426 -28.15856" stroke="black" fill="transparent" />
  <path d="M 20.074886 0.97989225 l 29.950546 -26.51348" stroke="black" fill="transparent" />
  <path d="M 22.576096 1.2257601 l 31.171053 -25.067219" stroke="black" fill="transparent" />
  <path d="M 25.075008 1.4939852 l 32.091873 -23.877007" stroke="black" fill="transparent" />
  <path d="M 27.57164 1.7826885 l 32.73488 -22.987556" stroke="black" fill="transparent" />
  <path d="M 30.06606 2.0899258 l 33.11922 -22.430275" stroke="black" fill="transparent" />
  <path d="M 32.558384 2.413721 l 33.258663 -22.222992" stroke="black" fill="transparent" />
  <path d="M 35.048775 2.7520957 l 33.159912 -22.370073" stroke="black" fill="transparent" />
  <path d="M 37.537415 3.1031027 l 32.82223 -22.862656" stroke="black" fill="transparent" />
  <path d="M 40.024513 3.4648588 l 32.23828 -23.678959" stroke="black" fill="transparent" />
  <path d="M 42.510296 3.8355737 l 31.396053 -24.784832" stroke="black" fill="transparent" />
  <path d="M 44.994972 4.213578 l 30.28173 -26.134588" stroke="black" fill="transparent" />
  <path d="M 47.478775 4.5973544 l 28.88311 -27.67248" stroke="black" fill="transparent" />
  <path d="M 49.96189 4.9855537 l 27.193436 -29.334572" stroke="black" fill="transparent" />
  <path d="M 52.444492 5.3770213 l 25.21476 -31.051825" stroke="black" fill="transparent" />
  <path d="M 54.926723 5.770812 l 22.960861 -32.753605" stroke="black" fill="transparent" />
  <path d="M 57.4087 6.1662035 l 20.458874 -34.372" stroke="black" fill="transparent" />
  <path d="M 59.8905 6.562711 l 17.749802 -35.846123" stroke="black" fill="transparent" />
  <path d="M 62.37216 6.9600887 l 14.887261 -37.126396" stroke="black" fill="transparent" />
  <path d="M 64.85368 7.358336 l 11.935099 -38.177917" stroke="black" fill="transparent" />
  <path d="M 67.33502 7.757698 l 8.963886 -38.982674" stroke="black" fill="transparent" />
  <path d="M 69.81611 8.158662 l 6.0466695 -39.540333" stroke="black" fill="transparent" />
  <path d="M 72.296814 8.561946 l 3.2549963 -39.867344" stroke="black" fill="transparent" />
  <path d="M 74.776985 8.968496 l 0.6551051 -39.994637" stroke="black" fill="transparent" />
  <path d="M 77.25643 9.379463 l -1.6946548 -39.96409" stroke="black" fill="transparent" />
  <path d="M 79.73492 9.796188 l -3.7455332 -39.82425" stroke="black" fill="transparent" />
  <path d="M 82.21217 10.220182 l -5.458732 -39.625774" stroke="black" fill="transparent" />
  <path d="M 84.68788 10.653099 l -6.8048744 -39.416924" stroke="black" fill="transparent" />
  <path d="M 87.1617 11.096707 l -7.762745 -39.239517" stroke="black" fill="transparent" />
  <path d="M 89.63322 11.55286 l -8.317684 -39.125645" stroke="black" fill="transparent" />
  <path d="M 92.102036 12.023472 l -8.460187 -39.09508" stroke="black" fill="transparent" />
  <path d="M 94.56767 12.510466 l -8.184939 -39.15363" stroke="black" fill="transparent" />
  <path d="M 97.02962 13.015758 l -7.490461 -39.292404" stroke="black" fill="transparent" />
  <path d="M 99.48734 13.541217 l -6.3796306 -39.487976" stroke="black" fill="transparent" />
  <path d="M 101.94027 14.088633 l -4.860976 -39.703537" stroke="black" fill="transparent" />
  <path d="M 104.3878 14.659686 l -2.9504986 -39.891033" stroke="black" fill="transparent" />
  <path d="M 106.82931 15.25592 l -0.6735909 -39.994328" stroke="black" fill="transparent" />
  <path d="M 109.26418 15.878721 l 1.9330168 -39.953266" stroke="black" fill="transparent" />
  <path d="M 111.69178 16.529291 l 4.8202744 -39.708496" stroke="black" fill="transparent" />
  <path d="M 114.11148 17.208626 l 7.92676 -39.206715" stroke="black" fill="transparent" />
  <path d="M 116.522705 17.917524 l 11.1801195 -38.405792" stroke="black" fill="transparent" />
  <path d="M 118.92485 18.65654 l 14.499861 -37.279404" stroke="black" fill="transparent" />
  <path d="M 121.31743 19.42602 l 17.801645 -35.820404" stroke="black" fill="transparent" />
  <path d="M 123.69994 20.22605 l 21.00233 -34.042652" stroke="black" fill="transparent" />
  <path d="M 126.07204 21.056515 l 24.025564 -31.980812" stroke="black" fill="transparent" />
  <path d="M 128.43336 21.91704 l 26.806667 -29.688427" stroke="black" fill="transparent" />
  <path d="M 130.78375 22.807055 l 29.296745 -27.234184" stroke="black" fill="transparent" />
  <path d="M 133.12308 23.725769 l 31.465176 -24.697018" stroke="black" fill="transparent" />
  <path d="M 135.45132 24.672182 l 33.300133 -22.1608" stroke="black" fill="transparent" />
  <path d="M 137.76863 25.64513 l 34.807434 -19.708948" stroke="black" fill="transparent" />
  <path d="M 140.07518 26.643261 l 36.007553 -17.41999" stroke="black" fill="transparent" />
  <path d="M 142.37134 27.665104 l 36.931686 -15.363943" stroke="black" fill="transparent" />
  <path d="M 144.65753 28.709051 l 37.61703 -13.599972" stroke="black" fill="transparent" />
  <path d="M 146.9343 29.773403 l 38.10196 -12.175412" stroke="black" fill="transparent" />
  <path d="M 149.20226 30.856382 l 38.421658 -11.125477" stroke="black" fill="transparent" />
  <path d="M 151.46213 31.956179 l 38.604435 -10.473654" stroke="black" fill="transparent" />
  <path d="M 153.71463 33.070957 l 38.669094 -10.232346" stroke="black" fill="transparent" />
  <path d="M 155.96059 34.1989 l 38.623394 -10.403527" stroke="black" fill="transparent" />
  <path d="M 158.20078 35.338215 l 38.463768 -10.978994" stroke="black" fill="transparent" />
  <path d="M 160.43604 36.487213 l 38.176197 -11.9405985" stroke="black" fill="transparent" />
  <path d="M 162.66711 37.64424 l 37.738255 -13.25987" stroke="black" fill="transparent" />
  <path d="M 164.89484 38.80783 l 37.122036 -14.8981285" stroke="black" fill="transparent" />
  <path d="M 167.11981 39.976574 l 36.297947 -16.806522" stroke="black" fill="transparent" />
  <path d="M 169.34273 41.149292 l 35.238808 -18.92687" stroke="black" fill="transparent" />
  <path d="M 171.56406 42.32492 l 33.92421 -21.193108" stroke="black" fill="transparent" />
  <path d="M 173.78432 43.502636 l 32.34423 -23.534029" stroke="black" fill="transparent" />
  <path d="M 176.00381 44.68178 l 30.502558 -25.876514" stroke="black" fill="transparent" />
  <path d="M 178.2228 45.861927 l 28.418163 -28.149742" stroke="black" fill="transparent" />
  <path d="M 180.44135 47.042847 l 26.125736 -30.289371" stroke="black" fill="transparent" />
  <path d="M 182.65947 48.224545 l 23.67434 -32.241676" stroke="black" fill="transparent" />
  <path d="M 184.87708 49.407238 l 21.124844 -33.96676" stroke="black" fill="transparent" />
  <path d="M 187.0939 50.591362 l 18.546284 -35.44059" stroke="black" fill="transparent" />
  <path d="M 189.30963 51.777565 l 16.01166 -36.655514" stroke="black" fill="transparent" />
  <path d="M 191.5238 52.966682 l 13.593655 -37.619312" stroke="black" fill="transparent" />
  <path d="M 193.73584 54.159737 l 11.361055 -38.352657" stroke="black" fill="transparent" />
  <path d="M 195.94511 55.35793 l 9.375721 -38.88568" stroke="black" fill="transparent" />
  <path d="M 198.15086 56.562595 l 7.6907825 -39.253685" stroke="black" fill="transparent" />
  <path d="M 200.35225 57.7752 l 6.349685 -39.4928" stroke="black" fill="transparent" />
  <path d="M 202.54837 58.9973 l 5.3860626 -39.63572" stroke="black" fill="transparent" />
  <path d="M 204.7383 60.23054 l 4.8241973 -39.708023" stroke="black" fill="transparent" />
  <path d="M 206.92094 61.47657 l 4.6794844 -39.725334" stroke="black" fill="transparent" />
  <path d="M 209.09528 62.737064 l 4.958842 -39.691433" stroke="black" fill="transparent" />
  <path d="M 211.26015 64.013664 l 5.660777 -39.59742" stroke="black" fill="transparent" />
  <path d="M 213.41452 65.30798 l 6.7749844 -39.42207" stroke="black" fill="transparent" />
  <path d="M 215.55722 66.621506 l 8.28146 -39.13333" stroke="black" fill="transparent" />
  <path d="M 217.68713 67.955635 l 10.149423 -38.690945" stroke="black" fill="transparent" />
  <path d="M 219.80319 69.31163 l 12.336691 -38.050045" stroke="black" fill="transparent" />
  <path d="M 221.90439 70.69062 l 14.78904 -37.165634" stroke="black" fill="transparent" />
  <path d="M 223.98969 72.093506 l 17.440762 -35.997498" stroke="black" fill="transparent" />
  <path d="M 226.05814 73.521034 l 20.21648 -34.515125" stroke="black" fill="transparent" />
  <path d="M 228.109 74.97377 l 23.034092 -32.70215" stroke="black" fill="transparent" />
  <path d="M 230.14153 76.45208 l 25.808937 -30.55976" stroke="black" fill="transparent" />
  <path d="M 232.15508 77.95606 l 28.458843 -28.108614" stroke="black" fill="transparent" />
  <path d="M 234.14923 79.4857 l 30.909784 -25.388683" stroke="black" fill="transparent" />
</g>
n</svg>